#!OML:ASF H:\Pregnant\Project 1\Capture day 1\Session 1\femalepreg.ASF
:FULLY-SPECIFIED
:DEGREES
870
root -1.7488 16.1097 -28.3702 391.365 -0.154685 -362.3
lowerback -15.1641 0.263111 -10.4205
upperback -7.45203 1.7952 -1.89283
thorax 0.247032 1.1543 4.12903
lowerneck -25.6676 -10.3133 -7.67008
upperneck 22.0701 -15.3165 12.6468
head 13.3725 -5.76625 3.12115
rclavicle 7.95139e-016 2.38542e-014
rhumerus -16.4776 9.57682 -69.9806
rradius 59.5591
rwrist -38.5738
rhand -22.2834 -40.3833
rfingers 7.12502
rthumb 4.13513 -70.3229
lclavicle 7.95139e-016 2.38542e-014
lhumerus -0.0109336 -38.0053 63.2999
lradius 65.0462
lwrist 57.0512
lhand -35.2861 32.6185
lfingers 7.12502
lthumb -8.42089 62.4306
rfemur -56.8396 10.6002 11.8098
rtibia 64.265
rfoot -11.6108 -12.4773
rtoes -2.7721
lfemur -45.6167 -9.2801 -18.1671
ltibia 29.6932
lfoot -13.5227 3.88721
ltoes -27.8436
871
root -1.76043 16.1024 -28.3183 391.353 0.0595612 -362.283
lowerback -15.1823 0.28349 -10.4592
upperback -7.41 1.83374 -1.88524
thorax 0.294116 1.17145 4.16545
lowerneck -25.5843 -10.5995 -7.79743
upperneck 21.7704 -15.6926 12.8196
head 13.3109 -5.93392 3.12137
rclavicle 3.37934e-015 6.36111e-015
rhumerus -16.4666 9.84737 -70.0526
rradius 59.9596
rwrist -38.698
rhand -22.2731 -40.6485
rfingers 7.12502
rthumb 4.14508 -70.5879
lclavicle 3.37934e-015 6.36111e-015
lhumerus -0.0788308 -37.7172 63.2406
lradius 64.9613
lwrist 57.1862
lhand -35.3494 32.5569
lfingers 7.12502
lthumb -8.482 62.3666
rfemur -57.2587 10.9904 11.427
rtibia 63.9043
rfoot -11.8065 -11.7615
rtoes -3.97241
lfemur -45.5529 -9.49974 -18.0437
ltibia 29.9519
lfoot -13.7749 3.99941
ltoes -27.7714
872
root -1.77231 16.0946 -28.2662 391.349 0.262081 -362.275
lowerback -15.1896 0.318981 -10.484
upperback -7.37756 1.88823 -1.87698
thorax 0.323349 1.19744 4.1966
lowerneck -25.4869 -10.8765 -7.90561
upperneck 21.4527 -16.0517 12.9675
head 13.2339 -6.09784 3.11267
rclavicle -4.77083e-014 4.45278e-014
rhumerus -16.4945 10.0969 -70.1075
rradius 60.3922
rwrist -38.8296
rhand -22.2523 -40.9238
rfingers 7.12502
rthumb 4.16518 -70.8628
lclavicle -4.77083e-014 4.45278e-014
lhumerus -0.114988 -37.4719 63.1775
lradius 64.8693
lwrist 57.3179
lhand -35.4121 32.5075
lfingers 7.12502
lthumb -8.54244 62.3147
rfemur -57.6948 11.3473 11.0683
rtibia 63.4788
rfoot -11.9764 -11.1487
rtoes -5.14166
lfemur -45.5036 -9.73165 -17.9054
ltibia 30.2214
lfoot -14.0147 4.15756
ltoes -27.7484
873
root -1.78456 16.087 -28.2135 391.338 0.453896 -362.273
lowerback -15.1838 0.369014 -10.5025
upperback -7.33778 1.95979 -1.86382
thorax 0.351122 1.23168 4.23167
lowerneck -25.4091 -11.1479 -8.00276
upperneck 21.119 -16.3963 13.0974
head 13.1504 -6.25704 3.09763
rclavicle -8.15017e-015 4.77083e-015
rhumerus -16.5317 10.3244 -70.1326
rradius 60.8457
rwrist -38.9659
rhand -22.2466 -41.2302
rfingers 7.12502
rthumb 4.17064 -71.1691
lclavicle -8.15017e-015 4.77083e-015
lhumerus -0.0948482 -37.2567 63.1074
lradius 64.7699
lwrist 57.4284
lhand -35.4829 32.4635
lfingers 7.12502
lthumb -8.61082 62.2679
rfemur -58.1262 11.6765 10.7301
rtibia 62.9866
rfoot -12.1366 -10.6404
rtoes -6.12892
lfemur -45.4463 -9.94889 -17.7755
ltibia 30.4912
lfoot -14.2465 4.34265
ltoes -27.83
874
root -1.79721 16.0788 -28.1603 391.34 0.645606 -362.283
lowerback -15.1772 0.425656 -10.5114
upperback -7.31076 2.0374 -1.83352
thorax 0.363568 1.27029 4.28005
lowerneck -25.2974 -11.4048 -8.10462
upperneck 20.7636 -16.7112 13.214
head 13.0479 -6.40862 3.08587
rclavicle 4.57205e-015 9.54166e-015
rhumerus -16.5963 10.5564 -70.128
rradius 61.3087
rwrist -39.0974
rhand -22.2584 -41.5482
rfingers 7.12502
rthumb 4.15921 -71.4873
lclavicle 4.57205e-015 9.54166e-015
lhumerus -0.0708616 -37.0674 63.0695
lradius 64.6672
lwrist 57.5003
lhand -35.5233 32.4191
lfingers 7.12502
lthumb -8.64983 62.2219
rfemur -58.5729 11.9701 10.4204
rtibia 62.4298
rfoot -12.304 -10.2327
rtoes -6.89136
lfemur -45.3991 -10.1621 -17.6308
ltibia 30.7536
lfoot -14.4631 4.55008
ltoes -27.9635
